Pontano.ufo
<glyph name="percent" format="1">
  <advance width="1677"/>
  <unicode hex="0025"/>
  <outline>
    <contour>
      <point x="268" y="-14" type="line" smooth="no"/>
      <point x="1503" y="1415" type="line" smooth="no"/>
      <point x="1426" y="1481" type="line" smooth="no"/>
      <point x="190" y="52" type="line" smooth="no"/>
    </contour>
    <contour>
      <point x="357" y="1466" type="curve" smooth="yes"/>
      <point x="558" y="1466"/>
      <point x="660" y="1292"/>
      <point x="660" y="1120" type="curve" smooth="yes"/>
      <point x="660" y="946"/>
      <point x="558" y="774"/>
      <point x="357" y="774" type="curve" smooth="yes"/>
      <point x="152" y="774"/>
      <point x="50" y="945"/>
      <point x="50" y="1118" type="curve" smooth="yes"/>
      <point x="50" y="1291"/>
      <point x="154" y="1466"/>
    </contour>
    <contour>
      <point x="357" y="1374" type="curve" smooth="yes"/>
      <point x="225" y="1374"/>
      <point x="161" y="1249"/>
      <point x="161" y="1123" type="curve" smooth="yes"/>
      <point x="161" y="995"/>
      <point x="227" y="868"/>
      <point x="357" y="868" type="curve" smooth="yes"/>
      <point x="484" y="868"/>
      <point x="548" y="995"/>
      <point x="548" y="1122" type="curve" smooth="yes"/>
      <point x="548" y="1248"/>
      <point x="485" y="1374"/>
    </contour>
    <contour>
      <point x="1325" y="692" type="curve" smooth="yes"/>
      <point x="1527" y="692"/>
      <point x="1628" y="518"/>
      <point x="1628" y="346" type="curve" smooth="yes"/>
      <point x="1628" y="172"/>
      <point x="1527" y="0"/>
      <point x="1325" y="0" type="curve" smooth="yes"/>
      <point x="1120" y="0"/>
      <point x="1019" y="171"/>
      <point x="1019" y="344" type="curve" smooth="yes"/>
      <point x="1019" y="517"/>
      <point x="1122" y="692"/>
    </contour>
    <contour>
      <point x="1325" y="599" type="curve" smooth="yes"/>
      <point x="1194" y="599"/>
      <point x="1129" y="474"/>
      <point x="1129" y="349" type="curve" smooth="yes"/>
      <point x="1129" y="221"/>
      <point x="1196" y="93"/>
      <point x="1325" y="93" type="curve" smooth="yes"/>
      <point x="1452" y="93"/>
      <point x="1517" y="221"/>
      <point x="1517" y="348" type="curve" smooth="yes"/>
      <point x="1517" y="473"/>
      <point x="1453" y="599"/>
    </contour>
  </outline>
</glyph>
<glyph name="comma" format="1">
  <advance width="445"/>
  <unicode hex="002c"/>
  <outline>
    <contour>
      <point x="100" y="219" type="line" smooth="no"/>
      <point x="300" y="219" type="line" smooth="no"/>
      <point x="300" y="134" type="line" smooth="no"/>
      <point x="295" y="-24"/>
      <point x="295" y="-163"/>
      <point x="163" y="-254" type="curve" smooth="no"/>
      <point x="114" y="-192" type="line" smooth="no"/>
      <point x="139" y="-172"/>
      <point x="191" y="-105"/>
      <point x="194" y="16" type="curve" smooth="no"/>
      <point x="100" y="29" type="line" smooth="no"/>
    </contour>
  </outline>
</glyph>
<glyph name="period" format="1">
  <advance width="434"/>
  <unicode hex="002e"/>
  <outline>
    <contour>
      <point x="135" y="215" type="line" smooth="no"/>
      <point x="299" y="215" type="line" smooth="no"/>
      <point x="299" y="0" type="line" smooth="no"/>
      <point x="135" y="0" type="line" smooth="no"/>
    </contour>
  </outline>
</glyph>
<glyph name="colon" format="1">
  <advance width="482"/>
  <unicode hex="003a"/>
  <outline>
    <contour>
      <point x="332" y="387" type="line" smooth="no"/>
      <point x="332" y="171" type="line" smooth="no"/>
      <point x="159" y="171" type="line" smooth="no"/>
      <point x="159" y="387" type="line" smooth="no"/>
    </contour>
    <contour>
      <point x="159" y="1024" type="line" smooth="no"/>
      <point x="332" y="1024" type="line" smooth="no"/>
      <point x="332" y="808" type="line" smooth="no"/>
      <point x="159" y="808" type="line" smooth="no"/>
    </contour>
  </outline>
</glyph>
<glyph name="equal" format="1">
  <advance width="820"/>
  <unicode hex="003d"/>
  <outline>
    <contour>
      <point x="135" y="550" type="line" smooth="no"/>
      <point x="135" y="650" type="line" smooth="no"/>
      <point x="685" y="650" type="line" smooth="no"/>
      <point x="685" y="550" type="line" smooth="no"/>
    </contour>
    <contour>
      <point x="135" y="300" type="line" smooth="no"/>
      <point x="135" y="400" type="line" smooth="no"/>
      <point x="685" y="400" type="line" smooth="no"/>
      <point x="685" y="300" type="line" smooth="no"/>
    </contour>
  </outline>
</glyph>
<glyph name="E" format="1">
  <advance width="1202"/>
  <unicode hex="0045"/>
  <outline>
    <contour>
      <point x="1128" y="0" type="line"/>
      <point x="148" y="0" type="line"/>
      <point x="148" y="1464" type="line"/>
      <point x="1117" y="1464" type="line"/>
      <point x="1117" y="1352" type="line"/>
      <point x="294" y="1352" type="line"/>
      <point x="294" y="838" type="line"/>
      <point x="1010" y="838" type="line"/>
      <point x="1010" y="723" type="line"/>
      <point x="294" y="723" type="line"/>
      <point x="294" y="112" type="line"/>
      <point x="1128" y="112" type="line"/>
    </contour>
  </outline>
</glyph>
<glyph name="F" format="1">
  <advance width="1178.66666667"/>
  <unicode hex="0046"/>
  <outline>
    <contour>
      <point x="1117" y="1352" type="line"/>
      <point x="294" y="1352" type="line"/>
      <point x="294" y="830" type="line"/>
      <point x="1009" y="830" type="line"/>
      <point x="1009" y="716" type="line"/>
      <point x="294" y="716" type="line"/>
      <point x="294" y="0" type="line"/>
      <point x="148" y="0" type="line"/>
      <point x="148" y="1464" type="line"/>
      <point x="1117" y="1464" type="line"/>
    </contour>
  </outline>
</glyph>
<glyph name="G" format="1">
  <advance width="1382.54545455"/>
  <unicode hex="0047"/>
  <outline>
    <contour>
      <point x="735" y="1491" type="curve" smooth="yes"/>
      <point x="958" y="1491"/>
      <point x="1151" y="1381"/>
      <point x="1236" y="1150" type="curve"/>
      <point x="1114" y="1096" type="line"/>
      <point x="1046" y="1280"/>
      <point x="915" y="1374"/>
      <point x="734" y="1374" type="curve" smooth="yes"/>
      <point x="400" y="1374"/>
      <point x="267" y="1149"/>
      <point x="267" y="721" type="curve" smooth="yes"/>
      <point x="267" y="319"/>
      <point x="381" y="93"/>
      <point x="719" y="93" type="curve" smooth="yes"/>
      <point x="885" y="93"/>
      <point x="1104" y="203"/>
      <point x="1104" y="444" type="curve" smooth="yes"/>
      <point x="1104" y="664" type="line"/>
      <point x="732" y="664" type="line"/>
      <point x="732" y="789" type="line"/>
      <point x="1248" y="789" type="line"/>
      <point x="1248" y="581" type="line" smooth="yes"/>
      <point x="1248" y="428"/>
      <point x="1238" y="0"/>
      <point x="1238" y="0" type="curve"/>
      <point x="1145" y="0" type="line"/>
      <point x="1113" y="191" type="line"/>
      <point x="1040" y="67.4279"/>
      <point x="885" y="-25"/>
      <point x="701" y="-25" type="curve" smooth="yes"/>
      <point x="360" y="-25"/>
      <point x="114" y="164.253"/>
      <point x="114" y="722" type="curve" smooth="yes"/>
      <point x="114" y="1271"/>
      <point x="360" y="1491"/>
    </contour>
  </outline>
</glyph>
<glyph name="K" format="1">
  <advance width="1252"/>
  <unicode hex="004B"/>
  <outline>
    <contour>
      <point x="1180" y="1464" type="line"/>
      <point x="665" y="926" type="line"/>
      <point x="1244" y="0" type="line"/>
      <point x="1077" y="0" type="line"/>
      <point x="562" y="828" type="line"/>
      <point x="294" y="553" type="line"/>
      <point x="294" y="0" type="line"/>
      <point x="148" y="0" type="line"/>
      <point x="148" y="1464" type="line"/>
      <point x="294" y="1464" type="line"/>
      <point x="294" y="726" type="line"/>
      <point x="1003" y="1464" type="line"/>
    </contour>
  </outline>
</glyph>
<glyph name="L" format="1">
  <advance width="1020"/>
  <unicode hex="004C"/>
  <outline>
    <contour>
      <point x="1041" y="0" type="line"/>
      <point x="148" y="0" type="line"/>
      <point x="148" y="1464" type="line"/>
      <point x="294" y="1464" type="line"/>
      <point x="294" y="112" type="line"/>
      <point x="1041" y="112" type="line"/>
    </contour>
  </outline>
</glyph>
<glyph name="N" format="1">
  <advance width="1491"/>
  <unicode hex="004E"/>
  <outline>
    <contour>
      <point x="148" y="0" type="line"/>
      <point x="148" y="1464" type="line"/>
      <point x="311" y="1464" type="line"/>
      <point x="1214" y="221" type="line"/>
      <point x="1214" y="1464" type="line"/>
      <point x="1343" y="1464" type="line"/>
      <point x="1343" y="0" type="line"/>
      <point x="1211" y="0" type="line"/>
      <point x="281" y="1290" type="line"/>
      <point x="281" y="0" type="line"/>
    </contour>
  </outline>
</glyph>
<glyph name="O" format="1">
  <advance width="1449"/>
  <unicode hex="004f"/>
  <outline>
    <contour>
      <point x="723" y="1491" type="curve" smooth="yes"/>
      <point x="1103" y="1491"/>
      <point x="1335" y="1281"/>
      <point x="1335" y="741" type="curve" smooth="yes"/>
      <point x="1335" y="193"/>
      <point x="1113" y="-25"/>
      <point x="722" y="-25" type="curve" smooth="yes"/>
      <point x="339" y="-25"/>
      <point x="114" y="186"/>
      <point x="114" y="740" type="curve" smooth="yes"/>
      <point x="114" y="1282"/>
      <point x="344" y="1491"/>
    </contour>
    <contour>
      <point x="722" y="1374" type="curve" smooth="yes"/>
      <point x="370" y="1374"/>
      <point x="267" y="1130"/>
      <point x="267" y="741" type="curve" smooth="yes"/>
      <point x="267" y="302"/>
      <point x="385" y="93"/>
      <point x="723" y="93" type="curve" smooth="yes"/>
      <point x="1062" y="93"/>
      <point x="1180" y="298"/>
      <point x="1180" y="740" type="curve" smooth="yes"/>
      <point x="1180" y="1130"/>
      <point x="1076" y="1374"/>
    </contour>
  </outline>
</glyph>
<glyph name="Q" format="1">
  <advance width="1488"/>
  <unicode hex="0051"/>
  <outline>
    <contour>
      <point x="1266" y="-345" type="line"/>
      <point x="1016" y="30" type="line"/>
      <point x="933" y="-8"/>
      <point x="835" y="-25"/>
      <point x="722" y="-25" type="curve" smooth="yes"/>
      <point x="339" y="-25"/>
      <point x="114" y="186"/>
      <point x="114" y="740" type="curve" smooth="yes"/>
      <point x="114" y="1282"/>
      <point x="344" y="1491"/>
      <point x="723" y="1491" type="curve" smooth="yes"/>
      <point x="1103" y="1491"/>
      <point x="1335" y="1281"/>
      <point x="1335" y="741" type="curve" smooth="yes"/>
      <point x="1335" y="419"/>
      <point x="1258" y="211"/>
      <point x="1116" y="94" type="curve"/>
      <point x="1374" y="-263" type="line"/>
    </contour>
    <contour>
      <point x="722" y="1374" type="curve" smooth="yes"/>
      <point x="370" y="1374"/>
      <point x="267" y="1130"/>
      <point x="267" y="741" type="curve" smooth="yes"/>
      <point x="267" y="302"/>
      <point x="385" y="93"/>
      <point x="723" y="93" type="curve" smooth="yes"/>
      <point x="1062" y="93"/>
      <point x="1180" y="298"/>
      <point x="1180" y="740" type="curve" smooth="yes"/>
      <point x="1180" y="1130"/>
      <point x="1076" y="1374"/>
    </contour>
  </outline>
</glyph>
<glyph name="X" format="1">
  <advance width="1245"/>
  <unicode hex="0058"/>
  <outline>
    <contour>
      <point x="626" y="889" type="line" smooth="no"/>
      <point x="1029" y="1464" type="line" smooth="no"/>
      <point x="1195" y="1464" type="line" smooth="no"/>
      <point x="706" y="767" type="line" smooth="no"/>
      <point x="1239" y="0" type="line" smooth="no"/>
      <point x="1066" y="0" type="line" smooth="no"/>
      <point x="620" y="641" type="line" smooth="no"/>
      <point x="173" y="0" type="line" smooth="no"/>
      <point x="6" y="0" type="line" smooth="no"/>
      <point x="540" y="763" type="line" smooth="no"/>
      <point x="51" y="1464" type="line" smooth="no"/>
      <point x="226" y="1464" type="line" smooth="no"/>
    </contour>
  </outline>
</glyph>
<glyph name="b" format="1">
  <advance width="1078"/>
  <unicode hex="0062"/>
  <outline>
    <contour>
      <point x="565" y="940" type="curve" smooth="yes"/>
      <point x="735" y="940"/>
      <point x="842" y="757"/>
      <point x="842" y="520" type="curve" smooth="yes"/>
      <point x="842" y="255.801"/>
      <point x="739" y="80"/>
      <point x="567" y="80" type="curve" smooth="yes"/>
      <point x="335" y="80"/>
      <point x="265" y="274.679"/>
      <point x="265" y="522" type="curve" smooth="yes"/>
      <point x="265" y="848"/>
      <point x="435" y="940"/>
    </contour>
    <contour>
      <point x="127" y="0" type="line"/>
      <point x="240" y="0" type="line"/>
      <point x="259" y="161" type="line"/>
      <point x="310" y="38.3405"/>
      <point x="438" y="-25"/>
      <point x="582" y="-25" type="curve" smooth="yes"/>
      <point x="845" y="-25"/>
      <point x="986" y="190.409"/>
      <point x="986" y="502" type="curve" smooth="yes"/>
      <point x="986" y="840"/>
      <point x="839" y="1044"/>
      <point x="591" y="1044" type="curve" smooth="yes"/>
      <point x="451" y="1044"/>
      <point x="329" y="985"/>
      <point x="270" y="865" type="curve"/>
      <point x="270" y="1474" type="line"/>
      <point x="127" y="1474" type="line"/>
    </contour>
  </outline>
</glyph>
<glyph name="d" format="1">
  <advance width="1064"/>
  <unicode hex="0064"/>
  <outline>
    <contour>
      <point x="92" y="500" type="curve" smooth="yes"/>
      <point x="92" y="832"/>
      <point x="230" y="1044"/>
      <point x="484" y="1044" type="curve" smooth="yes"/>
      <point x="629" y="1044"/>
      <point x="737" y="991"/>
      <point x="794" y="863" type="curve"/>
      <point x="794" y="1474" type="line"/>
      <point x="937" y="1474" type="line"/>
      <point x="937" y="0" type="line"/>
      <point x="823" y="0" type="line"/>
      <point x="804" y="172" type="line"/>
      <point x="752" y="50.3827"/>
      <point x="629" y="-25"/>
      <point x="488" y="-25" type="curve" smooth="yes"/>
      <point x="239" y="-25"/>
      <point x="92" y="187.405"/>
    </contour>
    <contour>
      <point x="506" y="80" type="curve" smooth="yes"/>
      <point x="636" y="80"/>
      <point x="800" y="126.11"/>
      <point x="800" y="499" type="curve" smooth="yes"/>
      <point x="800" y="748"/>
      <point x="717" y="940"/>
      <point x="504" y="940" type="curve" smooth="yes"/>
      <point x="332" y="940"/>
      <point x="237" y="762"/>
      <point x="237" y="496" type="curve" smooth="yes"/>
      <point x="237" y="258.429"/>
      <point x="336" y="80"/>
    </contour>
  </outline>
</glyph>
<glyph name="h" format="1">
  <advance width="1098"/>
  <unicode hex="0068"/>
  <outline>
    <contour>
      <point x="599" y="940" type="curve" smooth="yes"/>
      <point x="345" y="940"/>
      <point x="269" y="723"/>
      <point x="269" y="483" type="curve" smooth="yes"/>
      <point x="269" y="0" type="line"/>
      <point x="127" y="0" type="line"/>
      <point x="127" y="1474" type="line"/>
      <point x="269" y="1474" type="line"/>
      <point x="269" y="862" type="line"/>
      <point x="357" y="999"/>
      <point x="487" y="1044"/>
      <point x="620" y="1044" type="curve" smooth="yes"/>
      <point x="946" y="1044"/>
      <point x="977" y="784"/>
      <point x="977" y="583" type="curve" smooth="yes"/>
      <point x="977" y="0" type="line"/>
      <point x="835" y="0" type="line"/>
      <point x="835" y="594" type="line" smooth="yes"/>
      <point x="835" y="807"/>
      <point x="783" y="940"/>
    </contour>
  </outline>
</glyph>
<glyph name="k" format="1">
  <advance width="1005"/>
  <unicode hex="006B"/>
  <outline>
    <contour>
      <point x="794" y="1023" type="line"/>
      <point x="956" y="1023" type="line"/>
      <point x="575" y="651" type="line"/>
      <point x="1015" y="0" type="line"/>
      <point x="855" y="0" type="line"/>
      <point x="482" y="565" type="line"/>
      <point x="269" y="369" type="line"/>
      <point x="269" y="0" type="line"/>
      <point x="127" y="0" type="line"/>
      <point x="127" y="1474" type="line"/>
      <point x="268" y="1474" type="line"/>
      <point x="268" y="511" type="line"/>
    </contour>
  </outline>
</glyph>
<glyph name="m" format="1">
  <advance width="1664"/>
  <unicode hex="006D"/>
  <outline>
    <contour>
      <point x="269" y="583" type="curve" smooth="yes"/>
      <point x="269" y="0" type="line"/>
      <point x="127" y="0" type="line"/>
      <point x="127" y="1023" type="line"/>
      <point x="264" y="1023" type="line"/>
      <point x="268" y="861" type="line"/>
      <point x="348" y="998"/>
      <point x="476" y="1044"/>
      <point x="594" y="1044" type="curve" smooth="yes"/>
      <point x="751" y="1044"/>
      <point x="844" y="961"/>
      <point x="880" y="832" type="curve"/>
      <point x="952" y="982"/>
      <point x="1092" y="1044"/>
      <point x="1225" y="1044" type="curve" smooth="yes"/>
      <point x="1508" y="1044"/>
      <point x="1543" y="792"/>
      <point x="1543" y="576" type="curve" smooth="yes"/>
      <point x="1543" y="0" type="line"/>
      <point x="1401" y="0" type="line"/>
      <point x="1401" y="607" type="line" smooth="yes"/>
      <point x="1401" y="802"/>
      <point x="1357" y="940"/>
      <point x="1200" y="940" type="curve" smooth="yes"/>
      <point x="1024" y="940"/>
      <point x="905" y="761"/>
      <point x="905" y="591" type="curve" smooth="yes"/>
      <point x="905" y="0" type="line"/>
      <point x="763" y="0" type="line"/>
      <point x="763" y="607" type="line" smooth="yes"/>
      <point x="763" y="805"/>
      <point x="718" y="940"/>
      <point x="564" y="940" type="curve" smooth="yes"/>
      <point x="382" y="940"/>
      <point x="269" y="757"/>
    </contour>
  </outline>
</glyph>
<glyph name="p" format="1">
  <advance width="1057"/>
  <unicode hex="0070"/>
  <outline>
    <contour>
      <point x="821" y="521" type="curve" smooth="yes"/>
      <point x="821" y="242.368"/>
      <point x="720" y="80"/>
      <point x="555" y="80" type="curve" smooth="yes"/>
      <point x="323" y="80"/>
      <point x="266" y="293.486"/>
      <point x="266" y="519" type="curve" smooth="yes"/>
      <point x="266" y="737"/>
      <point x="302" y="940"/>
      <point x="554" y="940" type="curve" smooth="yes"/>
      <point x="722" y="940"/>
      <point x="821" y="767"/>
    </contour>
    <contour>
      <point x="249" y="1023" type="line"/>
      <point x="127" y="1023" type="line"/>
      <point x="127" y="-350" type="line"/>
      <point x="269" y="-350" type="line"/>
      <point x="269" y="154" type="line"/>
      <point x="328" y="39.3596"/>
      <point x="437" y="-25"/>
      <point x="576" y="-25" type="curve"/>
      <point x="842" y="-21.9945"/>
      <point x="965" y="216.443"/>
      <point x="965" y="520" type="curve" smooth="yes"/>
      <point x="965" y="812"/>
      <point x="844" y="1044"/>
      <point x="569" y="1044" type="curve" smooth="yes"/>
      <point x="420" y="1044"/>
      <point x="322" y="976"/>
      <point x="259" y="858" type="curve"/>
    </contour>
  </outline>
</glyph>
<glyph name="braceright" format="1">
  <advance width="644"/>
  <unicode hex="007d"/>
  <outline>
    <contour>
      <point x="609" y="753" type="line" smooth="no"/>
      <point x="447.905" y="764.716"/>
      <point x="445.999" y="896.538"/>
      <point x="445.999" y="1022.83" type="curve" smooth="yes"/>
      <point x="445.999" y="1025.89"/>
      <point x="446" y="1028.95"/>
      <point x="446" y="1032" type="curve" smooth="yes"/>
      <point x="446" y="1331"/>
      <point x="446" y="1543"/>
      <point x="36" y="1543" type="curve" smooth="no"/>
      <point x="36" y="1453" type="line" smooth="no"/>
      <point x="294.015" y="1453"/>
      <point x="295" y="1375.2"/>
      <point x="295" y="1039.79" type="curve" smooth="yes"/>
      <point x="295" y="1032" type="line" smooth="yes"/>
      <point x="295" y="850"/>
      <point x="325" y="737"/>
      <point x="454" y="706" type="curve" smooth="no"/>
      <point x="325" y="675"/>
      <point x="295" y="562"/>
      <point x="295" y="380" type="curve" smooth="yes"/>
      <point x="295" y="372.214" type="line" smooth="yes"/>
      <point x="295" y="36.7985"/>
      <point x="294.015" y="-41"/>
      <point x="36" y="-41" type="curve" smooth="no"/>
      <point x="36" y="-131" type="line" smooth="no"/>
      <point x="446" y="-131"/>
      <point x="446" y="81"/>
      <point x="446" y="380" type="curve" smooth="yes"/>
      <point x="446" y="383.053"/>
      <point x="445.999" y="386.112"/>
      <point x="445.999" y="389.173" type="curve" smooth="yes"/>
      <point x="445.999" y="515.462"/>
      <point x="447.905" y="647.284"/>
      <point x="609" y="659" type="curve" smooth="no"/>
    </contour>
  </outline>
</glyph>
<glyph name="yen" format="1">
  <advance width="1358"/>
  <unicode hex="00a5"/>
  <outline>
    <contour>
      <point x="348" y="544" type="line" smooth="no"/>
      <point x="348" y="630" type="line" smooth="no"/>
      <point x="559" y="630" type="line" smooth="no"/>
      <point x="94" y="1436" type="line" smooth="no"/>
      <point x="252" y="1436" type="line" smooth="no"/>
      <point x="680" y="682" type="line" smooth="no"/>
      <point x="1107" y="1436" type="line" smooth="no"/>
      <point x="1264" y="1436" type="line" smooth="no"/>
      <point x="799" y="630" type="line" smooth="no"/>
      <point x="1002" y="630" type="line" smooth="no"/>
      <point x="1002" y="544" type="line" smooth="no"/>
      <point x="752" y="544" type="line" smooth="no"/>
      <point x="752" y="420" type="line" smooth="no"/>
      <point x="1002" y="420" type="line" smooth="no"/>
      <point x="1002" y="334" type="line" smooth="no"/>
      <point x="752" y="334" type="line" smooth="no"/>
      <point x="752" y="0" type="line" smooth="no"/>
      <point x="606" y="0" type="line" smooth="no"/>
      <point x="606" y="334" type="line" smooth="no"/>
      <point x="348" y="334" type="line" smooth="no"/>
      <point x="348" y="420" type="line" smooth="no"/>
      <point x="606" y="420" type="line" smooth="no"/>
      <point x="606" y="544" type="line" smooth="no"/>
    </contour>
  </outline>
</glyph>
<glyph name="brokenbar" format="1">
  <advance width="416"/>
  <unicode hex="00a6"/>
  <outline>
    <contour>
      <point x="135" y="-198" type="line" smooth="no"/>
      <point x="135" y="433" type="line" smooth="no"/>
      <point x="281" y="433" type="line" smooth="no"/>
      <point x="281" y="-198" type="line" smooth="no"/>
    </contour>
    <contour>
      <point x="281" y="883" type="line" smooth="no"/>
      <point x="135" y="883" type="line" smooth="no"/>
      <point x="135" y="1504" type="line" smooth="no"/>
      <point x="281" y="1504" type="line" smooth="no"/>
    </contour>
  </outline>
</glyph>
<glyph name="macron" format="1">
  <advance width="724"/>
  <unicode hex="00af"/>
  <outline>
    <contour>
      <point x="135" y="1219" type="line" smooth="no"/>
      <point x="135" y="1329" type="line" smooth="no"/>
      <point x="589" y="1329" type="line" smooth="no"/>
      <point x="589" y="1219" type="line" smooth="no"/>
    </contour>
  </outline>
</glyph>
<glyph name="plusminus" format="1">
  <advance width="860"/>
  <unicode hex="00b1"/>
  <outline>
    <contour>
      <point x="129" y="247" type="line" smooth="no"/>
      <point x="129" y="333" type="line" smooth="no"/>
      <point x="730" y="333" type="line" smooth="no"/>
      <point x="730" y="247" type="line" smooth="no"/>
    </contour>
    <contour>
      <point x="130" y="673" type="line" smooth="no"/>
      <point x="130" y="773" type="line" smooth="no"/>
      <point x="379" y="773" type="line" smooth="no"/>
      <point x="379" y="1023" type="line" smooth="no"/>
      <point x="481" y="1023" type="line" smooth="no"/>
      <point x="481" y="773" type="line" smooth="no"/>
      <point x="730" y="773" type="line" smooth="no"/>
      <point x="730" y="673" type="line" smooth="no"/>
      <point x="481" y="673" type="line" smooth="no"/>
      <point x="481" y="423" type="line" smooth="no"/>
      <point x="379" y="423" type="line" smooth="no"/>
      <point x="379" y="673" type="line" smooth="no"/>
    </contour>
  </outline>
</glyph>
<glyph name="paragraph" format="1">
  <advance width="1038"/>
  <unicode hex="00b6"/>
  <outline>
    <contour>
      <point x="465" y="0" type="line" smooth="no"/>
      <point x="465" y="799" type="line" smooth="no"/>
      <point x="250" y="799"/>
      <point x="87" y="939"/>
      <point x="87" y="1135" type="curve" smooth="yes"/>
      <point x="87" y="1314"/>
      <point x="186" y="1464"/>
      <point x="626" y="1464" type="curve" smooth="yes"/>
      <point x="994" y="1464" type="line" smooth="no"/>
      <point x="994" y="1349" type="line" smooth="no"/>
      <point x="824" y="1349" type="line" smooth="no"/>
      <point x="824" y="0" type="line" smooth="no"/>
      <point x="698" y="0" type="line" smooth="no"/>
      <point x="698" y="799" type="line" smooth="no"/>
      <point x="595" y="799" type="line" smooth="no"/>
      <point x="595" y="0" type="line" smooth="no"/>
    </contour>
  </outline>
</glyph>
<glyph name="multiply" format="1">
  <advance width="734"/>
  <unicode hex="00d7"/>
  <outline>
    <contour>
      <point x="190" y="203" type="line" smooth="no"/>
      <point x="120" y="273" type="line" smooth="no"/>
      <point x="296" y="449" type="line" smooth="no"/>
      <point x="119" y="626" type="line" smooth="no"/>
      <point x="191" y="698" type="line" smooth="no"/>
      <point x="368" y="521" type="line" smooth="no"/>
      <point x="544" y="697" type="line" smooth="no"/>
      <point x="614" y="627" type="line" smooth="no"/>
      <point x="438" y="451" type="line" smooth="no"/>
      <point x="615" y="274" type="line" smooth="no"/>
      <point x="543" y="202" type="line" smooth="no"/>
      <point x="366" y="379" type="line" smooth="no"/>
    </contour>
  </outline>
</glyph>
<glyph name="Hbar" format="1">
  <advance width="1457"/>
  <unicode hex="0126"/>
  <outline>
    <contour>
      <point x="48" y="1144" type="line" smooth="no"/>
      <point x="48" y="1230" type="line" smooth="no"/>
      <point x="148" y="1230" type="line" smooth="no"/>
      <point x="148" y="1464" type="line" smooth="no"/>
      <point x="294" y="1464" type="line" smooth="no"/>
      <point x="294" y="1230" type="line" smooth="no"/>
      <point x="1164" y="1230" type="line" smooth="no"/>
      <point x="1164" y="1464" type="line" smooth="no"/>
      <point x="1309" y="1464" type="line" smooth="no"/>
      <point x="1309" y="1230" type="line" smooth="no"/>
      <point x="1400" y="1230" type="line" smooth="no"/>
      <point x="1400" y="1144" type="line" smooth="no"/>
      <point x="1309" y="1144" type="line" smooth="no"/>
      <point x="1309" y="0" type="line" smooth="no"/>
      <point x="1164" y="0" type="line" smooth="no"/>
      <point x="1164" y="720" type="line" smooth="no"/>
      <point x="294" y="720" type="line" smooth="no"/>
      <point x="294" y="0" type="line" smooth="no"/>
      <point x="148" y="0" type="line" smooth="no"/>
      <point x="148" y="1144" type="line" smooth="no"/>
    </contour>
    <contour>
      <point x="1164" y="1144" type="line" smooth="no"/>
      <point x="294" y="1144" type="line" smooth="no"/>
      <point x="294" y="836" type="line" smooth="no"/>
      <point x="1164" y="836" type="line" smooth="no"/>
    </contour>
  </outline>
</glyph>
<glyph name="uni01CA" format="1">
  <advance width="2445"/>
  <unicode hex="01ca"/>
  <outline>
    <contour>
      <point x="1512" y="334" type="curve" smooth="no"/>
      <point x="1642" y="369" type="line" smooth="no"/>
      <point x="1680" y="198"/>
      <point x="1746" y="93"/>
      <point x="1908" y="93" type="curve" smooth="no"/>
      <point x="2148" y="95"/>
      <point x="2164" y="306"/>
      <point x="2164" y="541" type="curve" smooth="yes"/>
      <point x="2164" y="1464" type="line" smooth="no"/>
      <point x="2309" y="1464" type="line" smooth="no"/>
      <point x="2309" y="544" type="line" smooth="yes"/>
      <point x="2309" y="166"/>
      <point x="2209" y="-25"/>
      <point x="1896" y="-25" type="curve" smooth="yes"/>
      <point x="1670" y="-25"/>
      <point x="1555" y="117"/>
    </contour>
    <contour>
      <point x="148" y="0" type="line" smooth="no"/>
      <point x="148" y="1464" type="line" smooth="no"/>
      <point x="311" y="1464" type="line" smooth="no"/>
      <point x="1214" y="221" type="line" smooth="no"/>
      <point x="1214" y="1464" type="line" smooth="no"/>
      <point x="1343" y="1464" type="line" smooth="no"/>
      <point x="1343" y="0" type="line" smooth="no"/>
      <point x="1211" y="0" type="line" smooth="no"/>
      <point x="281" y="1290" type="line" smooth="no"/>
      <point x="281" y="0" type="line" smooth="no"/>
    </contour>
  </outline>
</glyph>
<glyph name="breve" format="1">
  <advance width="805"/>
  <unicode hex="02d8"/>
  <outline>
    <contour>
      <point x="402" y="1183" type="curve" smooth="yes"/>
      <point x="265" y="1183"/>
      <point x="130" y="1268"/>
      <point x="126" y="1438" type="curve" smooth="no"/>
      <point x="242" y="1438" type="line" smooth="no"/>
      <point x="242" y="1331"/>
      <point x="308" y="1287"/>
      <point x="402" y="1287" type="curve" smooth="yes"/>
      <point x="496" y="1287"/>
      <point x="562" y="1331"/>
      <point x="562" y="1438" type="curve" smooth="no"/>
      <point x="678" y="1438" type="line" smooth="no"/>
      <point x="674" y="1268"/>
      <point x="539" y="1183"/>
    </contour>
  </outline>
</glyph>
